<?xml version="1.0" encoding="UTF-8"?>
<svg id="svg838" width="24" height="24" version="1.1" viewBox="0 0 24 24" xmlns="http://www.w3.org/2000/svg">
 <rect id="rect834" width="24" height="24" fill="#fff" fill-opacity=".01"/>
 <path id="path836" d="m3 1.5438e-7h18c0.7956 0 1.5587 0.31607 2.1213 0.87868s0.8787 1.3257 0.8787 2.1213v18c0 0.7956-0.3161 1.5587-0.8787 2.1213s-1.3257 0.8787-2.1213 0.8787h-18c-0.79565 0-1.5587-0.3161-2.1213-0.8787-0.56261-0.5626-0.87868-1.3257-0.87868-2.1213v-18c0-0.79565 0.31607-1.5587 0.87868-2.1213 0.56261-0.56261 1.3257-0.87868 2.1213-0.87868z" clip-rule="evenodd" fill="#36b37e" fill-rule="evenodd"/>
 <path id="path857" d="m11.5 4.5-5 5a1.7071 1.7071 112.5 0 0-0.5 1.2071v7.2929a1 1 45 0 0 1 1h10a1 1 135 0 0 1-1v-7.2929a1.7071 1.7071 67.5 0 0-0.5-1.2071l-5-5a0.70711 0.70711 0 0 0-1 0zm0.5 2.5c1.1046 0 2 0.89543 2 2 0 1.1046-0.89543 2-2 2s-2-0.89543-2-2c0-1.1046 0.89543-2 2-2z" fill="#fff" stroke-width="0"/>
</svg>
