<?xml version="1.0" encoding="UTF-8"?>
<svg id="svg1672" width="24" height="24" version="1.1" viewBox="0 0 24 24" xmlns="http://www.w3.org/2000/svg">
 <g id="layer1" stroke-width="0">
  <path id="rect1757" x="0" y="0" width="24" height="24" d="m2 0h20a2 2 45 0 1 2 2v20a2 2 135 0 1-2 2h-19a3 3 45 0 1-3-3v-19a2 2 135 0 1 2-2z" fill="#6554c0"/>
  <path id="rect1904" x="16" y="4" width="3" height="16" d="m16 4h1a2 2 45 0 1 2 2v12a2 2 135 0 1-2 2h-1z" fill="#fff"/>
  <path id="rect1928" x="5" y="4" width="9" height="16" d="m6 4h8v16h-8a1 1 45 0 1-1-1v-14a1 1 135 0 1 1-1z" fill="#fff"/>
 </g>
</svg>
