<?xml version="1.0" encoding="UTF-8"?>
<svg id="svg838" width="16" height="16" version="1.1" viewBox="0 0 16 16" xmlns="http://www.w3.org/2000/svg">
 <path id="path857" d="m10.667 3.3333-3.3333 3.3334a1.1381 1.1381 0 0 0-0.33334 0.80474v4.862a0.66667 0.66667 0 0 0 0.66667 0.66667h6.6667a0.66667 0.66667 0 0 0 0.66667-0.66667v-4.862a1.1381 1.1381 0 0 0-0.33334-0.80474l-3.3334-3.3334a0.47141 0.47141 0 0 0-0.66667 0zm0.33334 1.6667c0.7364 0 1.3333 0.59696 1.3333 1.3333 0 0.7364-0.59696 1.3333-1.3333 1.3333-0.73638 0-1.3333-0.59696-1.3333-1.3333 0-0.7364 0.59696-1.3333 1.3333-1.3333z" fill="#ebecf0" stroke-width="0"/>
 <path id="path1938" d="m3 5.5001a1.5002 1.5 0 0 0-1.5002 1.5 1.5002 1.5 0 0 0 1.5002 1.5" fill="none" stroke="#ebecf0" stroke-linecap="round" stroke-linejoin="round"/>
 <path id="path1938-7" d="m4 11.5a1.5002 1.5 0 0 0 1.5002-1.5 1.5002 1.5 0 0 0-1.5002-1.5" fill="none" stroke="#ebecf0" stroke-linecap="round" stroke-linejoin="round"/>
 <path id="path1375" d="m3 8.5h1" fill="none" stroke="#ebecf0" stroke-width="1px"/>
 <path id="path1642-0" transform="scale(-1)" d="m-4-5.5a1.5 1.5 0 0 1-1.4095-0.98697" fill="#ebecf0" stroke="#ebecf0" stroke-linecap="round"/>
 <path id="path1642-0-9" d="m3 11.5a1.5 1.5 0 0 1-1.4095-0.98697" fill="#ebecf0" stroke="#ebecf0" stroke-linecap="round"/>
 <path id="path1881" d="m3 5.5h1" fill="none" stroke="#ebecf0" stroke-width="1px"/>
 <path id="path1883" d="m3 11.5h1" fill="none" stroke="#ebecf0" stroke-width="1px"/>
</svg>
