<?xml version="1.0" encoding="UTF-8"?>
<svg id="svg838" width="16" height="16" version="1.1" viewBox="0 0 16 16" xmlns="http://www.w3.org/2000/svg">
 <path id="path860" d="m3.5 5.5v6m-2-6h4" fill="none" stroke="#ebecf0" stroke-linecap="round" stroke-width="1px"/>
 <path id="path857" d="m10.667 3.3333-3.3333 3.3334a1.1381 1.1381 0 0 0-0.33334 0.80474v4.862a0.66667 0.66667 0 0 0 0.66667 0.66667h6.6667a0.66667 0.66667 0 0 0 0.66667-0.66667v-4.862a1.1381 1.1381 0 0 0-0.33334-0.80474l-3.3334-3.3334a0.47141 0.47141 0 0 0-0.66667 0zm0.33334 1.6667c0.7364 0 1.3333 0.59696 1.3333 1.3333 0 0.7364-0.59696 1.3333-1.3333 1.3333-0.73638 0-1.3333-0.59696-1.3333-1.3333 0-0.7364 0.59696-1.3333 1.3333-1.3333z" fill="#ebecf0" stroke-width="0"/>
</svg>
