<?xml version="1.0" encoding="UTF-8"?>
<svg id="svg838" width="16" height="16" version="1.1" viewBox="0 0 16 16" xmlns="http://www.w3.org/2000/svg">
 <path id="path857" d="m7.524 1.1971-4.7596 4.7596a1.625 1.625 0 0 0-0.47596 1.1491v6.9423a0.95192 0.95192 0 0 0 0.95192 0.95192h9.5192a0.95192 0.95192 0 0 0 0.95192-0.95192v-6.9423a1.625 1.625 0 0 0-0.47596-1.1491l-4.7596-4.7596a0.67311 0.67311 0 0 0-0.95192 0zm0.47596 2.3798c1.0515 0 1.9038 0.85238 1.9038 1.9038 0 1.0515-0.85238 1.9038-1.9038 1.9038-1.0515 0-1.9038-0.85238-1.9038-1.9038 0-1.0515 0.85238-1.9038 1.9038-1.9038z" fill="#36b37e" stroke-width="0"/>
</svg>
