<?xml version="1.0" encoding="UTF-8"?>
<svg id="svg838" width="24" height="24" version="1.1" viewBox="0 0 24 24" xmlns="http://www.w3.org/2000/svg">
 <rect id="rect834" width="24" height="24" fill="#fff" fill-opacity=".01"/>
 <path id="path836" d="m3 1.5438e-7h18c0.7956 0 1.5587 0.31607 2.1213 0.87868s0.8787 1.3257 0.8787 2.1213v18c0 0.7956-0.3161 1.5587-0.8787 2.1213s-1.3257 0.8787-2.1213 0.8787h-18c-0.79565 0-1.5587-0.3161-2.1213-0.8787-0.56261-0.5626-0.87868-1.3257-0.87868-2.1213v-18c0-0.79565 0.31607-1.5587 0.87868-2.1213 0.56261-0.56261 1.3257-0.87868 2.1213-0.87868z" clip-rule="evenodd" fill="#00c7e6" fill-rule="evenodd"/>
 <path id="rect1634" d="m7 8a2 2 0 0 0-2 2v4a2 2 0 0 0 2 2h10a2 2 0 0 0 2-2v-4a2 2 0 0 0-2-2zm1 2h8a1 1 0 0 1 1 1v2a1 1 0 0 1-1 1h-8a1 1 0 0 1-1-1v-2a1 1 0 0 1 1-1z" fill="#fff"/>
</svg>
